<svg width="390" height="844" viewBox="0 0 390 844" fill="none" xmlns="http://www.w3.org/2000/svg">
<g opacity="0.31">
<g filter="url(#filter0_f_10_3539)">
<path d="M143.422 -13.5C218.255 35.3333 344.522 167.7 250.922 306.5C133.922 480 -17.5782 533 89.4218 687.5C175.022 811.1 404.089 730.667 507.922 675" stroke="#3C5BFF" stroke-width="3" stroke-linecap="square"/>
</g>
<g filter="url(#filter1_f_10_3539)">
<path d="M143.422 -13.5C218.255 35.3333 344.522 167.7 250.922 306.5C133.922 480 -17.5782 533 89.4218 687.5C175.022 811.1 404.089 730.667 507.922 675" stroke="#3C5BFF" stroke-width="3" stroke-linecap="square"/>
</g>
<g filter="url(#filter2_f_10_3539)">
<path d="M143.422 -13.5C218.255 35.3333 344.522 167.7 250.922 306.5C133.922 480 -17.5782 533 89.4218 687.5C175.022 811.1 404.089 730.667 507.922 675" stroke="#3C5BFF" stroke-width="3" stroke-linecap="square"/>
</g>
<g filter="url(#filter3_f_10_3539)">
<path d="M-54.7877 475.272C33.7211 462.988 215.865 479.956 236.369 646.106C261.998 853.794 182.501 993.227 364.64 1039.54C510.351 1076.59 630.354 865.544 672.142 755.39" stroke="#3C5BFF" stroke-width="3" stroke-linecap="square"/>
</g>
<g filter="url(#filter4_f_10_3539)">
<path d="M-54.7877 475.272C33.7211 462.988 215.865 479.956 236.369 646.106C261.998 853.794 182.501 993.227 364.64 1039.54C510.351 1076.59 630.354 865.544 672.142 755.39" stroke="#3C5BFF" stroke-width="3" stroke-linecap="square"/>
</g>
<g filter="url(#filter5_f_10_3539)">
<path d="M-54.7877 475.272C33.7211 462.988 215.865 479.956 236.369 646.106C261.998 853.794 182.501 993.227 364.64 1039.54C510.351 1076.59 630.354 865.544 672.142 755.39" stroke="#3C5BFF" stroke-width="3" stroke-linecap="square"/>
</g>
<g filter="url(#filter6_f_10_3539)">
<path d="M-290.058 212.48C-240.449 138.16 -106.774 13.278 31.0435 108.318C203.316 227.118 254.735 379.162 410.341 273.777C534.826 189.468 456.782 -40.4235 402.2 -144.831" stroke="#3C5BFF" stroke-width="3" stroke-linecap="square"/>
</g>
<g filter="url(#filter7_f_10_3539)">
<path d="M-290.058 212.48C-240.449 138.16 -106.774 13.278 31.0435 108.318C203.316 227.118 254.735 379.162 410.341 273.777C534.826 189.468 456.782 -40.4235 402.2 -144.831" stroke="#3C5BFF" stroke-width="3" stroke-linecap="square"/>
</g>
<g filter="url(#filter8_f_10_3539)">
<path d="M-290.058 212.48C-240.449 138.16 -106.774 13.278 31.0435 108.318C203.316 227.118 254.735 379.162 410.341 273.777C534.826 189.468 456.782 -40.4235 402.2 -144.831" stroke="#3C5BFF" stroke-width="3" stroke-linecap="square"/>
</g>
</g>
<path d="M349 401.5C209.4 373.5 94.4998 505.833 54.4998 575.5C116 413.5 -214 170 -25.0002 180.5C126.2 188.9 143 56.5 142 -11.5L439.5 -31L495.924 487.081C502.235 501.689 502.537 515 500 524.5L495.924 487.081C482.75 456.584 443.389 420.432 349 401.5Z" fill="#6F86FF" fill-opacity="0.07"/>
<g filter="url(#filter9_f_10_3539)">
<path d="M349 401.5C209.4 373.5 94.4998 505.833 54.4998 575.5C116 413.5 -214 170 -25.0002 180.5C126.2 188.9 143 56.5 142 -11.5L439.5 -31L495.924 487.081C502.235 501.689 502.537 515 500 524.5L495.924 487.081C482.75 456.584 443.389 420.432 349 401.5Z" fill="#6F86FF" fill-opacity="0.07"/>
</g>
<path d="M392 622C176.8 819.6 31.3333 710.667 -14.5 631.5L-33 864L381.5 930.5C474.667 745.333 607.2 424.4 392 622Z" fill="#6F86FF" fill-opacity="0.07"/>
<g filter="url(#filter10_f_10_3539)">
<path d="M392 622C176.8 819.6 31.3333 710.667 -14.5 631.5L-33 864L381.5 930.5C474.667 745.333 607.2 424.4 392 622Z" fill="#6F86FF" fill-opacity="0.07"/>
</g>
<g opacity="0.76" filter="url(#filter11_b_10_3539)">
<rect width="500" height="942" transform="matrix(-1 0 0 1 445 -14)" fill="black" fill-opacity="0.1"/>
</g>
<defs>
<filter id="filter0_f_10_3539" x="21.6" y="-45.4759" width="518.253" height="829.462" filterUnits="userSpaceOnUse" color-interpolation-filters="sRGB">
<feFlood flood-opacity="0" result="BackgroundImageFix"/>
<feBlend mode="normal" in="SourceGraphic" in2="BackgroundImageFix" result="shape"/>
<feGaussianBlur stdDeviation="14.95" result="effect1_foregroundBlur_10_3539"/>
</filter>
<filter id="filter1_f_10_3539" x="38.4" y="-28.6759" width="484.653" height="795.862" filterUnits="userSpaceOnUse" color-interpolation-filters="sRGB">
<feFlood flood-opacity="0" result="BackgroundImageFix"/>
<feBlend mode="normal" in="SourceGraphic" in2="BackgroundImageFix" result="shape"/>
<feGaussianBlur stdDeviation="6.55" result="effect1_foregroundBlur_10_3539"/>
</filter>
<filter id="filter2_f_10_3539" x="48.7" y="-18.3759" width="464.053" height="775.262" filterUnits="userSpaceOnUse" color-interpolation-filters="sRGB">
<feFlood flood-opacity="0" result="BackgroundImageFix"/>
<feBlend mode="normal" in="SourceGraphic" in2="BackgroundImageFix" result="shape"/>
<feGaussianBlur stdDeviation="1.4" result="effect1_foregroundBlur_10_3539"/>
</filter>
<filter id="filter3_f_10_3539" x="-86.3797" y="440.713" width="790.356" height="634.537" filterUnits="userSpaceOnUse" color-interpolation-filters="sRGB">
<feFlood flood-opacity="0" result="BackgroundImageFix"/>
<feBlend mode="normal" in="SourceGraphic" in2="BackgroundImageFix" result="shape"/>
<feGaussianBlur stdDeviation="14.95" result="effect1_foregroundBlur_10_3539"/>
</filter>
<filter id="filter4_f_10_3539" x="-69.5797" y="457.513" width="756.756" height="600.937" filterUnits="userSpaceOnUse" color-interpolation-filters="sRGB">
<feFlood flood-opacity="0" result="BackgroundImageFix"/>
<feBlend mode="normal" in="SourceGraphic" in2="BackgroundImageFix" result="shape"/>
<feGaussianBlur stdDeviation="6.55" result="effect1_foregroundBlur_10_3539"/>
</filter>
<filter id="filter5_f_10_3539" x="-59.2797" y="467.813" width="736.156" height="580.337" filterUnits="userSpaceOnUse" color-interpolation-filters="sRGB">
<feFlood flood-opacity="0" result="BackgroundImageFix"/>
<feBlend mode="normal" in="SourceGraphic" in2="BackgroundImageFix" result="shape"/>
<feGaussianBlur stdDeviation="1.4" result="effect1_foregroundBlur_10_3539"/>
</filter>
<filter id="filter6_f_10_3539" x="-322.039" y="-176.755" width="830.423" height="517.352" filterUnits="userSpaceOnUse" color-interpolation-filters="sRGB">
<feFlood flood-opacity="0" result="BackgroundImageFix"/>
<feBlend mode="normal" in="SourceGraphic" in2="BackgroundImageFix" result="shape"/>
<feGaussianBlur stdDeviation="14.95" result="effect1_foregroundBlur_10_3539"/>
</filter>
<filter id="filter7_f_10_3539" x="-305.239" y="-159.955" width="796.823" height="483.752" filterUnits="userSpaceOnUse" color-interpolation-filters="sRGB">
<feFlood flood-opacity="0" result="BackgroundImageFix"/>
<feBlend mode="normal" in="SourceGraphic" in2="BackgroundImageFix" result="shape"/>
<feGaussianBlur stdDeviation="6.55" result="effect1_foregroundBlur_10_3539"/>
</filter>
<filter id="filter8_f_10_3539" x="-294.939" y="-149.655" width="776.223" height="463.152" filterUnits="userSpaceOnUse" color-interpolation-filters="sRGB">
<feFlood flood-opacity="0" result="BackgroundImageFix"/>
<feBlend mode="normal" in="SourceGraphic" in2="BackgroundImageFix" result="shape"/>
<feGaussianBlur stdDeviation="1.4" result="effect1_foregroundBlur_10_3539"/>
</filter>
<filter id="filter9_f_10_3539" x="-188.429" y="-135.3" width="794.218" height="815.1" filterUnits="userSpaceOnUse" color-interpolation-filters="sRGB">
<feFlood flood-opacity="0" result="BackgroundImageFix"/>
<feBlend mode="normal" in="SourceGraphic" in2="BackgroundImageFix" result="shape"/>
<feGaussianBlur stdDeviation="52.15" result="effect1_foregroundBlur_10_3539"/>
</filter>
<filter id="filter10_f_10_3539" x="-104.8" y="488.106" width="684.707" height="514.194" filterUnits="userSpaceOnUse" color-interpolation-filters="sRGB">
<feFlood flood-opacity="0" result="BackgroundImageFix"/>
<feBlend mode="normal" in="SourceGraphic" in2="BackgroundImageFix" result="shape"/>
<feGaussianBlur stdDeviation="35.9" result="effect1_foregroundBlur_10_3539"/>
</filter>
<filter id="filter11_b_10_3539" x="-205" y="-164" width="800" height="1242" filterUnits="userSpaceOnUse" color-interpolation-filters="sRGB">
<feFlood flood-opacity="0" result="BackgroundImageFix"/>
<feGaussianBlur in="BackgroundImageFix" stdDeviation="75"/>
<feComposite in2="SourceAlpha" operator="in" result="effect1_backgroundBlur_10_3539"/>
<feBlend mode="normal" in="SourceGraphic" in2="effect1_backgroundBlur_10_3539" result="shape"/>
</filter>
</defs>
</svg>
